<svg width="76" height="76" viewBox="0 0 76 76" fill="none" xmlns="http://www.w3.org/2000/svg">
<circle cx="38" cy="38" r="38" fill="#F5F5FF"/>
<path d="M53.3125 21.5156C53.3125 22.1625 52.7875 22.6875 52.1406 22.6875H23.8594C23.2125 22.6875 22.6875 22.1625 22.6875 21.5156C22.6875 20.8687 23.2125 20.3438 23.8594 20.3438H52.1406C52.7875 20.3438 53.3125 20.8687 53.3125 21.5156Z" fill="#5B5555"/>
<path d="M53.3125 21.5156C53.3125 22.1625 52.7875 22.6875 52.1406 22.6875H38V20.3438H52.1406C52.7875 20.3438 53.3125 20.8687 53.3125 21.5156Z" fill="#463F3F"/>
<path d="M54.4844 53.3125C53.8372 53.3125 53.3125 52.7878 53.3125 52.1406V23.8594C53.3125 23.2122 53.8372 22.6875 54.4844 22.6875C55.1316 22.6875 55.6563 23.2122 55.6563 23.8594V52.1406C55.6563 52.7878 55.1316 53.3125 54.4844 53.3125Z" fill="#463F3F"/>
<path d="M53.3125 54.4844C53.3125 55.1313 52.7875 55.6562 52.1406 55.6562H23.8594C23.2125 55.6562 22.6875 55.1313 22.6875 54.4844C22.6875 53.8375 23.2125 53.3125 23.8594 53.3125H52.1406C52.7875 53.3125 53.3125 53.8375 53.3125 54.4844Z" fill="#5B5555"/>
<path d="M53.3125 54.4844C53.3125 55.1313 52.7875 55.6562 52.1406 55.6562H38V53.3125H52.1406C52.7875 53.3125 53.3125 53.8375 53.3125 54.4844Z" fill="#463F3F"/>
<path d="M21.5156 53.3125C20.8684 53.3125 20.3438 52.7878 20.3438 52.1406V23.8594C20.3438 23.2122 20.8684 22.6875 21.5156 22.6875C22.1628 22.6875 22.6875 23.2122 22.6875 23.8594V52.1406C22.6875 52.7878 22.1628 53.3125 21.5156 53.3125Z" fill="#5B5555"/>
<path d="M25.0313 56.8281C25.0313 57.4753 24.5066 58 23.8594 58H19.1719C18.5247 58 18 57.4753 18 56.8281V52.1406C18 51.4934 18.5247 50.9688 19.1719 50.9688H23.8594C24.5066 50.9688 25.0313 51.4934 25.0313 52.1406V56.8281Z" fill="#B9B6EC"/>
<path d="M56.8281 58H52.1406C51.4934 58 50.9688 57.4753 50.9688 56.8281V52.1406C50.9688 51.4934 51.4934 50.9688 52.1406 50.9688H56.8281C57.4753 50.9688 58 51.4934 58 52.1406V56.8281C58 57.4753 57.4753 58 56.8281 58Z" fill="#979FEF"/>
<path d="M23.8594 25.0312H19.1719C18.5247 25.0312 18 24.5066 18 23.8594V19.1719C18 18.5247 18.5247 18 19.1719 18H23.8594C24.5066 18 25.0313 18.5247 25.0313 19.1719V23.8594C25.0313 24.5066 24.5066 25.0312 23.8594 25.0312Z" fill="#B9B6EC"/>
<path d="M56.8281 25.0312H52.1406C51.4934 25.0312 50.9688 24.5066 50.9688 23.8594V19.1719C50.9688 18.5247 51.4934 18 52.1406 18H56.8281C57.4753 18 58 18.5247 58 19.1719V23.8594C58 24.5066 57.4753 25.0312 56.8281 25.0312Z" fill="#979FEF"/>
<path d="M47.717 46.618C47.3319 46.8149 47.985 46.7547 37.9991 46.6766C35.492 46.657 32.3139 46.6359 28.2811 46.618C27.7045 46.3242 27.4756 45.6188 27.7694 45.0422L36.9553 27.0266C37.1553 26.6344 37.5584 26.3867 37.9991 26.3867C38.4397 26.3867 38.8428 26.6344 39.0428 27.0266L48.2287 45.0422C48.5225 45.6188 48.2936 46.3242 47.717 46.618Z" fill="#FFDA2D"/>
<path d="M47.718 46.618C47.3328 46.8149 47.9859 46.7547 38 46.6766V26.3867C38.4406 26.3867 38.8437 26.6344 39.0437 27.0266L48.2297 45.0422C48.5234 45.6188 48.2945 46.3242 47.718 46.618Z" fill="#FDBF00"/>
<path d="M38 41.5938C34.3242 41.5938 27.4531 42.6445 27.4531 46.2813C27.4531 49.9297 34.2789 50.9688 38 50.9688C41.7141 50.9688 48.5469 49.932 48.5469 46.2813C48.5469 42.882 42.3469 41.5938 38 41.5938Z" fill="#FDBF00"/>
<path d="M48.5469 46.2813C48.5469 49.932 41.7141 50.9688 38 50.9688V41.5938C42.3469 41.5938 48.5469 42.882 48.5469 46.2813Z" fill="#FF9100"/>
</svg>
