<svg width="76" height="76" viewBox="0 0 76 76" fill="none" xmlns="http://www.w3.org/2000/svg">
<circle cx="38" cy="38" r="38" fill="#F5F5FF"/>
<path d="M45.7604 58H21.7743C20.2158 58 18.9524 56.7649 18.9524 55.2414V20.7586C18.9524 19.2351 20.2158 18 21.7743 18H45.7604C47.3189 18 48.5823 19.2351 48.5823 20.7586V36.9931L45.7604 58Z" fill="#35495E"/>
<path d="M45.7603 20.7586V37.6621L43.4392 52.4828H21.7741V20.7586H45.7603Z" fill="white"/>
<path d="M45.7603 31.6552V37.6621L43.4392 52.4828H21.7741V42.9104C26.1269 38.5587 34.3739 32.1932 45.7603 31.6552Z" fill="#DBDBDB"/>
<path d="M35.8834 55.931H31.6505C31.2609 55.931 30.945 55.6222 30.945 55.2414C30.945 54.8605 31.2609 54.5517 31.6505 54.5517H35.8834C36.273 54.5517 36.5888 54.8605 36.5888 55.2414C36.5888 55.6222 36.273 55.931 35.8834 55.931Z" fill="#2C3E50"/>
<path d="M37.2945 24.8965H30.2398C29.8502 24.8965 29.5343 24.5878 29.5343 24.2069C29.5343 23.826 29.8502 23.5172 30.2398 23.5172H37.2945C37.6841 23.5172 38 23.826 38 24.2069C38 24.5878 37.6841 24.8965 37.2945 24.8965Z" fill="#547580"/>
<path d="M42.9386 28.3448H24.5963C24.2066 28.3448 23.8908 28.036 23.8908 27.6551C23.8908 27.2743 24.2066 26.9655 24.5963 26.9655H42.9386C43.3282 26.9655 43.644 27.2743 43.644 27.6551C43.644 28.036 43.3282 28.3448 42.9386 28.3448Z" fill="#547580"/>
<path d="M42.9386 31.7931H24.5963C24.2066 31.7931 23.8908 31.4843 23.8908 31.1034C23.8908 30.7225 24.2066 30.4137 24.5963 30.4137H42.9386C43.3282 30.4137 43.644 30.7225 43.644 31.1034C43.644 31.4843 43.3282 31.7931 42.9386 31.7931Z" fill="#547580"/>
<path d="M42.9386 35.2413H24.5963C24.2066 35.2413 23.8908 34.9326 23.8908 34.5517C23.8908 34.1708 24.2066 33.862 24.5963 33.862H42.9386C43.3282 33.862 43.644 34.1708 43.644 34.5517C43.644 34.9326 43.3282 35.2413 42.9386 35.2413Z" fill="#547580"/>
<path d="M37.8662 38.6896H24.5963C24.2066 38.6896 23.8908 38.3808 23.8908 37.9999C23.8908 37.6191 24.2066 37.3103 24.5963 37.3103H37.8662C38.2558 37.3103 38.5717 37.6191 38.5717 37.9999C38.5717 38.3808 38.2558 38.6896 37.8662 38.6896Z" fill="#547580"/>
<path d="M37.7886 42.8276H24.5963C24.2066 42.8276 23.8908 42.5188 23.8908 42.1379C23.8908 41.7571 24.2066 41.4483 24.5963 41.4483H37.7886C38.1783 41.4483 38.4941 41.7571 38.4941 42.1379C38.4941 42.5188 38.1783 42.8276 37.7886 42.8276Z" fill="#547580"/>
<path d="M33.7674 46.2758H24.5963C24.2066 46.2758 23.8908 45.9671 23.8908 45.5862C23.8908 45.2053 24.2066 44.8965 24.5963 44.8965H33.7674C34.157 44.8965 34.4729 45.2053 34.4729 45.5862C34.4729 45.9671 34.157 46.2758 33.7674 46.2758Z" fill="#547580"/>
<path d="M34.4733 49.7241H33.0623C32.6727 49.7241 32.3569 49.4153 32.3569 49.0345C32.3569 48.6536 32.6727 48.3448 33.0623 48.3448H34.4733C34.8629 48.3448 35.1788 48.6536 35.1788 49.0345C35.1788 49.4153 34.8629 49.7241 34.4733 49.7241Z" fill="#547580"/>
<path d="M57.0477 43.4414V47.5448C57.0464 48.9887 56.8082 50.423 56.3422 51.7931C55.8761 53.1632 55.638 54.5975 55.6367 56.0414V57.3103C55.6367 57.6912 55.3209 58 54.9312 58H45.0546C44.665 58 44.3491 57.6912 44.3491 57.3103V53.5103C44.3502 53.2965 44.2483 53.0947 44.074 52.9655L38.9452 49.062C38.3399 48.6048 37.9545 47.9236 37.8799 47.1793L37.5131 43.6207C37.3831 42.3874 38.123 41.2243 39.312 40.7931L36.7723 35.8827C36.545 35.4082 36.5281 34.863 36.7258 34.376C36.9235 33.8889 37.3181 33.5033 37.8164 33.3103C38.0454 33.2209 38.2895 33.1741 38.536 33.1724C39.2518 33.1733 39.9097 33.557 40.2503 34.1724L42.917 38.7034L43.0228 38.6414L44.0458 38.0414C44.5017 37.7694 45.0287 37.6328 45.5625 37.6483C45.9376 37.6568 46.307 37.7389 46.649 37.8896C47.2063 37.6483 48.1799 36.6552 49.7319 37.0483C50.105 37.1502 50.4546 37.3211 50.7619 37.5517C50.9939 37.4014 51.2395 37.2722 51.4956 37.1655C52.7816 36.6516 54.2588 37.1319 54.9736 38.2965L55.6367 39.3793L56.4551 40.9724C56.8441 41.7399 57.0468 42.5848 57.0477 43.4414Z" fill="#FDD7AD"/>
<path d="M45.0549 42.331L42.9173 38.7034L43.0232 38.6414L44.0461 38.0414L44.2168 38.0848L45.3653 40.0296C45.8064 40.7771 45.6791 41.7209 45.0549 42.331Z" fill="#F9C795"/>
<path d="M41.0199 43.6966L40.9141 43.7586C40.714 43.8767 40.4846 43.9388 40.2509 43.9379C39.7856 43.9394 39.355 43.6974 39.1222 43.3035L38.1275 41.6207C38.4416 41.2482 38.8503 40.9628 39.3127 40.7931L41.0199 43.6966Z" fill="#F9C795"/>
<path d="M48.7394 40.031L48.582 40.069L47.9189 38.9862C47.6225 38.5005 47.1787 38.1172 46.6491 37.8896L47.5238 37.3793C48.2784 37.5423 48.9313 38.0011 49.3299 38.6483C49.4853 38.9019 49.5082 39.2126 49.3917 39.4854C49.2752 39.7582 49.0331 39.9607 48.7394 40.031Z" fill="#F9C795"/>
<path d="M52.1094 39.3793L51.4462 38.2966C51.2701 38.007 51.0376 37.7539 50.7619 37.5517L51.1006 37.3517C51.2258 37.2773 51.3581 37.2149 51.4956 37.1655C51.7386 37.263 51.9665 37.393 52.1729 37.5517L52.1807 37.5572C52.6223 37.9082 52.7096 38.5338 52.3803 38.9876L52.1094 39.3793Z" fill="#F9C795"/>
</svg>
