<svg width="76" height="76" viewBox="0 0 76 76" fill="none" xmlns="http://www.w3.org/2000/svg">
<circle cx="38" cy="38" r="38" fill="#F5F5FF"/>
<path d="M18 25.7707L50.229 57.9998L52.094 56.1349L37.8444 38.1555L19.8649 23.9058L18 25.7707Z" fill="#42C8C6"/>
<path d="M19.865 23.9057L52.0941 56.1348L57.9995 50.2293L55.9884 48.2182L55.0559 48.2183L55.056 47.2858L53.5109 45.7407L52.5784 45.7408V44.8082L51.0334 43.2633L50.1009 43.2633V42.3308L48.5559 40.7856L47.6234 40.7857L47.6234 39.8532L36.1465 28.3762L35.214 28.3763L35.2141 27.4438L33.669 25.8987L32.7365 25.8988V24.9663L31.1915 23.4213H30.2589L30.2591 22.4888L28.714 20.9437H27.7814L27.7815 20.0112L25.7704 18.0002L19.865 23.9057Z" fill="#81E3E2"/>
<path d="M23.5908 52.4093V56.1365L18 58L23.5908 52.4093Z" fill="#4D4D4D"/>
<path d="M19.8636 52.4094L23.1249 51.9434L22.659 55.2047L18 58.0001L19.8636 52.4094Z" fill="#737373"/>
<path d="M28.2503 49.6138L29.1822 54.2728L23.5914 56.1365L22.6596 55.2047L28.2503 49.6138Z" fill="#FEA680"/>
<path d="M21.7274 46.8184L29.3955 46.6046L27.3182 52.4092L22.6592 55.2046L19.8638 52.4092L21.7274 46.8184Z" fill="#FFC1A6"/>
<path d="M49.7769 27.4656L51.0193 32.4353L29.1817 54.2729L27.3181 52.4094L49.7769 27.4656Z" fill="#DFC136"/>
<path d="M48.5345 27.4656L53.5041 29.9504L57.2313 26.2232C58.2562 25.1982 58.2562 23.521 57.2313 22.496L55.3677 20.6324L48.5345 27.4656Z" fill="#FE5F1A"/>
<path d="M21.7277 46.8183L25.4549 50.5455L28.4367 49.8L50.2742 27.9623L43.5653 24.9806L21.7277 46.8183Z" fill="#FFE777"/>
<path d="M51.0174 28.7081L49.1539 26.8446L25.4535 50.5451L27.317 52.4086L51.0174 28.7081Z" fill="#FEDC3D"/>
<path d="M53.5034 18.7687L55.3669 20.6323C56.3919 21.6573 56.3919 23.3346 55.3669 24.3595L50.3974 29.3291L46.049 22.4959L49.7762 18.7687C50.8012 17.7438 52.4784 17.7438 53.5034 18.7687Z" fill="#FE834D"/>
<path d="M53.504 29.9502L51.6405 28.0867L49.1558 30.5714L51.0193 32.435L53.504 29.9502Z" fill="#ABECEC"/>
<path d="M51.6398 28.0875L46.049 22.4967L43.5643 24.9814L49.1551 30.5723L51.6398 28.0875Z" fill="#D5F6F5"/>
<path d="M27.7811 20.0115L25.9163 21.8763C25.6588 22.1338 25.6588 22.5512 25.9163 22.8088C26.1738 23.0664 26.5913 23.0663 26.8488 22.8088L28.7136 20.944L27.7811 20.0115Z" fill="#02ACAB"/>
<path d="M30.2588 22.4889L28.394 24.3537C28.1365 24.6112 28.1365 25.0286 28.394 25.2862C28.6515 25.5438 29.069 25.5437 29.3265 25.2862L31.1913 23.4214L30.2588 22.4889Z" fill="#02ACAB"/>
<path d="M32.7365 24.9663L30.8717 26.8312C30.6142 27.0887 30.6142 27.5061 30.8717 27.7637C31.1292 28.0213 31.5466 28.0212 31.8041 27.7637L33.669 25.8988L32.7365 24.9663Z" fill="#02ACAB"/>
<path d="M35.2142 27.444L33.3493 29.3088C33.0918 29.5663 33.0918 29.9837 33.3493 30.2413C33.6068 30.4989 34.0243 30.4988 34.2818 30.2413L36.1466 28.3765L35.2142 27.444Z" fill="#02ACAB"/>
<path d="M55.0556 47.2859L53.1907 49.1508C52.9332 49.4082 52.9332 49.8257 53.1907 50.0832C53.4482 50.3407 53.8657 50.3407 54.1232 50.0832L55.9881 48.2184L55.0556 47.2859Z" fill="#02ACAB"/>
<path d="M52.5779 44.8084L50.7131 46.6733C50.4556 46.9308 50.4556 47.3482 50.7131 47.6058C50.9706 47.8633 51.3881 47.8633 51.6456 47.6058L53.5104 45.7409L52.5779 44.8084Z" fill="#02ACAB"/>
<path d="M50.1002 42.3309L48.2354 44.1958C47.9779 44.4533 47.9779 44.8707 48.2354 45.1283C48.4929 45.3858 48.9104 45.3858 49.1679 45.1283L51.0327 43.2634L50.1002 42.3309Z" fill="#02ACAB"/>
<path d="M47.6237 39.8536L45.7589 41.7184C45.5014 41.9759 45.5014 42.3933 45.7589 42.6509C46.0164 42.9084 46.4339 42.9084 46.6914 42.6509L48.5562 40.7861L47.6237 39.8536Z" fill="#02ACAB"/>
</svg>
