<svg width="76" height="76" viewBox="0 0 76 76" fill="none" xmlns="http://www.w3.org/2000/svg">
<circle cx="38" cy="38" r="38" fill="#F5F5FF"/>
<path d="M56.8281 45.2214C56.8281 46.9471 55.4161 48.3595 53.6903 48.3595H22.3097C20.5839 48.3595 19.1719 46.9471 19.1719 45.2214V22.3097C19.1719 20.5839 20.5839 19.1719 22.3097 19.1719H53.6903C55.4161 19.1719 56.8281 20.5839 56.8281 22.3097V45.2214Z" fill="#FF4949"/>
<path d="M53.69 19.1719H38V48.3595H53.69C55.4161 48.3595 56.8281 46.9471 56.8281 45.2214V22.3097C56.8281 20.5839 55.4161 19.1719 53.69 19.1719Z" fill="#F30051"/>
<path d="M53.6903 18H22.3097C19.9333 18 18 19.9333 18 22.3097V45.2214C18 47.5978 19.9333 49.5314 22.3097 49.5314H34.9452V51.8907H28.5859C26.9017 51.8907 25.5311 53.2609 25.5311 54.9452C25.5311 56.6298 26.9017 58 28.5859 58H47.4141C49.0983 58 50.4689 56.6298 50.4689 54.9452C50.4689 53.2609 49.0986 51.8907 47.4141 51.8907H41.0548V49.5311H53.6903C56.0667 49.5311 58 47.5978 58 45.2214V22.3097C58 19.9333 56.0667 18 53.6903 18ZM55.6562 45.2214C55.6562 46.3057 54.7743 47.1876 53.6903 47.1876H22.3097C21.2257 47.1876 20.3438 46.3054 20.3438 45.2214V22.3097C20.3438 21.2257 21.2257 20.3438 22.3097 20.3438H53.6903C54.7743 20.3438 55.6562 21.2257 55.6562 22.3097V45.2214Z" fill="#265C76"/>
<path d="M45.4412 29.1346L34.1445 23.31C33.781 23.1227 33.3464 23.1382 32.9976 23.3509C32.6485 23.5637 32.4355 23.9427 32.4355 24.3516V36.0005C32.4355 36.4094 32.6485 36.7884 32.9976 37.0012C33.1844 37.115 33.3956 37.1724 33.6074 37.1724C33.7914 37.1724 33.9754 37.129 34.1445 37.042L45.4412 31.2178C45.8312 31.0167 46.0762 30.6147 46.0762 30.1762C46.0762 29.7374 45.8312 29.3357 45.4412 29.1346Z" fill="#E7F0EF"/>
<path d="M39.8824 42.4687H24.192C23.5448 42.4687 23.0202 41.9441 23.0202 41.2968C23.0202 40.6496 23.5448 40.125 24.192 40.125H39.8824C40.5296 40.125 41.0542 40.6496 41.0542 41.2968C41.0542 41.9441 40.5296 42.4687 39.8824 42.4687Z" fill="#C5E1E6"/>
<path d="M51.8075 42.4687H43.6489C43.0016 42.4687 42.4771 41.9441 42.4771 41.2968C42.4771 40.6496 43.0016 40.125 43.6489 40.125H51.8078C52.4551 40.125 52.9797 40.6496 52.9797 41.2968C52.9797 41.9441 52.4551 42.4687 51.8075 42.4687Z" fill="#1D4659"/>
<path d="M41.0545 38.2422C39.3699 38.2422 38 39.6125 38 41.2968C38 42.9813 39.3702 44.3516 41.0545 44.3516C42.7391 44.3516 44.1093 42.9813 44.1093 41.2968C44.109 39.6125 42.7388 38.2422 41.0545 38.2422Z" fill="#E7F0EF"/>
<path d="M53.69 18H38V20.3438H53.69C54.7743 20.3438 55.6562 21.2257 55.6562 22.3097V45.2214C55.6562 46.3057 54.7743 47.1876 53.69 47.1876H38V58H47.4141C49.0983 58 50.4689 56.6298 50.4689 54.9452C50.4689 53.2609 49.0986 51.8907 47.4141 51.8907H41.0548V49.5311H53.69C56.0667 49.5311 58 47.5978 58 45.2214V22.3097C58 19.9333 56.0667 18 53.69 18Z" fill="#1D4659"/>
</svg>
