<svg width="76" height="76" viewBox="0 0 76 76" fill="none" xmlns="http://www.w3.org/2000/svg">
<circle cx="38" cy="38" r="38" fill="#F5F5FF"/>
<path d="M27.375 30.8906C27.375 31.5383 26.8509 32.0624 26.2031 32.0624H21.5156C20.8679 32.0624 20.3438 31.5383 20.3438 30.8906V28.5468C20.3438 26.6082 21.9208 25.0312 23.8594 25.0312H26.2031C26.8509 25.0312 27.375 25.5553 27.375 26.2031V30.8906Z" fill="#1689FC"/>
<path d="M55.6562 30.8906C55.6562 31.5383 55.1321 32.0624 54.4844 32.0624H49.7969C49.1491 32.0624 48.625 31.5383 48.625 30.8906V26.2031C48.625 25.5553 49.1491 25.0312 49.7969 25.0312H52.1406C54.0792 25.0312 55.6562 26.6082 55.6562 28.5468V30.8906Z" fill="#136EF1"/>
<path d="M49.7969 25.0312H43.9375V19.1718C43.9375 18.5155 43.4219 17.9999 42.7656 17.9999H26.2031C25.5468 17.9999 25.0312 18.5155 25.0312 19.1718V30.8906C25.0312 31.5467 25.5468 32.0624 26.2031 32.0624H49.7969C50.4532 32.0624 50.9687 31.5467 50.9687 30.8906V26.2031C50.9687 25.5467 50.4532 25.0312 49.7969 25.0312Z" fill="#CAE8F9"/>
<path d="M49.7969 32.0624H38.0781V17.9999H42.7656C43.422 17.9999 43.9375 18.5155 43.9375 19.1718V25.0312H49.7969C50.4532 25.0312 50.9687 25.5467 50.9687 26.2031V30.8906C50.9687 31.5467 50.4532 32.0624 49.7969 32.0624Z" fill="#B7E0F6"/>
<path d="M50.9687 27.3749H42.7656C42.1179 27.3749 41.5938 26.8508 41.5938 26.2031V17.9999H44.148C45.0681 17.9999 45.9699 18.373 46.62 19.0242L49.9456 22.351C50.5957 23.0033 50.9687 23.9028 50.9687 24.8206V27.3749Z" fill="#CAE8F9"/>
<path d="M54.4844 29.7187H21.5156C19.5702 29.7187 18 31.2889 18 33.2343V45.1093C18 47.0545 19.5702 48.6249 21.5156 48.6249H54.4844C56.4298 48.6249 58 47.0545 58 45.1093V33.2343C58 31.2889 56.4298 29.7187 54.4844 29.7187Z" fill="#17ACE8"/>
<path d="M28.5468 36.7499H23.8593C22.3145 36.7499 22.3082 34.4062 23.8593 34.4062H28.5468C30.0916 34.4062 30.0979 36.7499 28.5468 36.7499Z" fill="#CAE8F9"/>
<path d="M58 33.2343V45.1093C58 47.0545 56.4298 48.6249 54.4844 48.6249H38.0781V29.7187H54.4844C56.4298 29.7187 58 31.2889 58 33.2343Z" fill="#1689FC"/>
<path d="M25.0312 42.7656V56.8281C25.0312 57.4843 25.5468 58 26.2031 58H49.7969C50.4532 58 50.9687 57.4843 50.9687 56.8281V42.7656H25.0312Z" fill="#CAE8F9"/>
<path d="M50.9687 42.7656V56.8281C50.9687 57.4843 50.4532 58 49.7969 58H38.0781V42.7656H50.9687Z" fill="#B7E0F6"/>
<path d="M45.1094 48.625H30.8907C29.344 48.625 29.344 46.2812 30.8907 46.2812H45.1094C46.656 46.2812 46.656 48.625 45.1094 48.625Z" fill="#17ACE8"/>
<path d="M45.1094 53.3125H30.8907C29.344 53.3125 29.344 50.9688 30.8907 50.9688H45.1094C46.656 50.9688 46.656 53.3125 45.1094 53.3125Z" fill="#17ACE8"/>
<path d="M45.1094 53.3125H38.0781V50.9688H45.1094C46.656 50.9688 46.656 53.3125 45.1094 53.3125Z" fill="#1689FC"/>
<path d="M45.1094 48.625H38.0781V46.2812H45.1094C46.656 46.2812 46.656 48.625 45.1094 48.625Z" fill="#1689FC"/>
<path d="M52.1407 43.9375H23.8594C22.3128 43.9375 22.3128 41.5938 23.8594 41.5938H52.1407C53.6873 41.5938 53.6873 43.9375 52.1407 43.9375Z" fill="#1689FC"/>
<path d="M52.1406 43.9375H38.0781V41.5938H52.1406C53.6873 41.5938 53.6873 43.9375 52.1406 43.9375Z" fill="#136EF1"/>
</svg>
