<svg width="76" height="76" viewBox="0 0 76 76" fill="none" xmlns="http://www.w3.org/2000/svg">
<circle cx="38" cy="38" r="38" fill="#F5F5FF"/>
<path d="M53.167 56.2666H24.0997C22.3905 56.2666 21.0001 54.8761 21.0001 53.167V30.2988C21.0001 29.7282 21.4627 29.2656 22.0333 29.2656H55.2334C55.804 29.2656 56.2666 29.7282 56.2666 30.2988V53.167C56.2666 54.8761 54.8761 56.2666 53.167 56.2666Z" fill="white"/>
<path d="M55.2334 29.2656H38.6334V56.2666H53.167C54.8762 56.2666 56.2666 54.8761 56.2666 53.167V30.2988C56.2666 29.7282 55.804 29.2656 55.2334 29.2656Z" fill="#EFEFEF"/>
<path d="M53.167 21H24.0997C22.3905 21 21.0001 22.3905 21.0001 24.0996V30.2988H56.2666V24.0996C56.2666 22.3905 54.8761 21 53.167 21Z" fill="#5E54AC"/>
<path d="M53.167 21H38.6334V30.2988H56.2666V24.0996C56.2666 22.3905 54.8762 21 53.167 21Z" fill="#453D81"/>
<path d="M26.235 26.6826C26.8056 26.6826 27.2682 26.22 27.2682 25.6494C27.2682 25.0788 26.8056 24.6162 26.235 24.6162C25.6644 24.6162 25.2018 25.0788 25.2018 25.6494C25.2018 26.22 25.6644 26.6826 26.235 26.6826Z" fill="#FF6378"/>
<path d="M30.3677 26.6826C30.9384 26.6826 31.4009 26.22 31.4009 25.6494C31.4009 25.0788 30.9384 24.6162 30.3677 24.6162C29.7971 24.6162 29.3345 25.0788 29.3345 25.6494C29.3345 26.22 29.7971 26.6826 30.3677 26.6826Z" fill="#00FF93"/>
<path d="M34.5005 26.6826C35.0712 26.6826 35.5337 26.22 35.5337 25.6494C35.5337 25.0788 35.0712 24.6162 34.5005 24.6162C33.9299 24.6162 33.4673 25.0788 33.4673 25.6494C33.4673 26.22 33.9299 26.6826 34.5005 26.6826Z" fill="#FFE278"/>
<path d="M40.6998 47.9321H36.567C35.9964 47.9321 35.5338 47.4695 35.5338 46.8989V42.7661C35.5338 42.1955 35.9964 41.7329 36.567 41.7329H40.6998C41.2704 41.7329 41.733 42.1955 41.733 42.7661V46.8989C41.733 47.4695 41.2704 47.9321 40.6998 47.9321Z" fill="#FFE278"/>
<path d="M40.6998 52.0649H36.567C35.9964 52.0649 35.5338 51.6023 35.5338 51.0317C35.5338 50.4611 35.9964 49.9985 36.567 49.9985H40.6998C41.2704 49.9985 41.733 50.4611 41.733 51.0317C41.733 51.6023 41.2704 52.0649 40.6998 52.0649Z" fill="#5E54AC"/>
<path d="M32.4342 47.9321H28.3014C27.7308 47.9321 27.2682 47.4695 27.2682 46.8989V42.7661C27.2682 42.1955 27.7308 41.7329 28.3014 41.7329H32.4342C33.0048 41.7329 33.4674 42.1955 33.4674 42.7661V46.8989C33.4674 47.4695 33.0048 47.9321 32.4342 47.9321Z" fill="#45F6FF"/>
<path d="M32.4342 52.0649H28.3014C27.7308 52.0649 27.2682 51.6023 27.2682 51.0317C27.2682 50.4611 27.7308 49.9985 28.3014 49.9985H32.4342C33.0048 49.9985 33.4674 50.4611 33.4674 51.0317C33.4674 51.6023 33.0048 52.0649 32.4342 52.0649Z" fill="#5E54AC"/>
<path d="M48.9654 47.9321H44.8326C44.262 47.9321 43.7994 47.4695 43.7994 46.8989V42.7661C43.7994 42.1955 44.262 41.7329 44.8326 41.7329H48.9654C49.536 41.7329 49.9986 42.1955 49.9986 42.7661V46.8989C49.9986 47.4695 49.536 47.9321 48.9654 47.9321Z" fill="#D0004F"/>
<path d="M48.9654 52.0649H44.8326C44.262 52.0649 43.7994 51.6023 43.7994 51.0317C43.7994 50.4611 44.262 49.9985 44.8326 49.9985H48.9654C49.536 49.9985 49.9986 50.4611 49.9986 51.0317C49.9986 51.6023 49.536 52.0649 48.9654 52.0649Z" fill="#453D81"/>
<path d="M40.6998 41.7329H38.6334V47.9321H40.6998C41.2704 47.9321 41.733 47.4695 41.733 46.8989V42.7661C41.733 42.1955 41.2704 41.7329 40.6998 41.7329Z" fill="#FFB454"/>
<path d="M40.6998 49.9985H38.6334V52.0649H40.6998C41.2704 52.0649 41.733 51.6023 41.733 51.0317C41.733 50.4611 41.2704 49.9985 40.6998 49.9985Z" fill="#453D81"/>
<path d="M44.8326 39.1499C44.6045 39.1499 44.3802 39.0743 44.1967 38.9311C43.946 38.7352 43.7994 38.4349 43.7994 38.1167V35.0171C43.7994 34.6989 43.946 34.3986 44.1967 34.2027C44.4475 34.007 44.7745 33.9375 45.0832 34.0148L51.2824 35.5646C51.7423 35.6795 52.065 36.0928 52.065 36.5669C52.065 37.041 51.7423 37.4543 51.2824 37.5692L45.0832 39.119C45.0004 39.1398 44.9163 39.1499 44.8326 39.1499Z" fill="#FAAA8C"/>
<path d="M31.7454 33.9839C31.1748 33.9839 30.7122 34.4465 30.7122 35.0171V38.1167C30.7122 38.6873 31.1748 39.1499 31.7454 39.1499H44.8326V33.9839H31.7454Z" fill="#8BB9FF"/>
<path d="M38.6334 33.9839H44.8326V39.1499H38.6334V33.9839Z" fill="#4793FF"/>
<path d="M27.7848 33.9841C26.3582 33.9841 25.2018 35.1406 25.2018 36.5671C25.2018 37.9937 26.3582 39.1501 27.7848 39.1501H31.7454V33.9841H27.7848Z" fill="#FFE278"/>
<path d="M56.2666 24.1684C56.2666 22.4566 54.8789 21.0688 53.167 21.0688H24.0997C22.3878 21.0688 21.0001 22.4566 21.0001 24.1684V30.3676L21.6889 31.0564H55.5778C55.8468 30.7875 55.9976 30.6366 56.2666 30.3676V24.1684Z" fill="#0052C2"/>
<path d="M56.2666 24.1684V30.3676C55.9973 30.637 55.8472 30.7871 55.5778 31.0564H38.6334V21.0688H53.167C54.8787 21.0688 56.2666 22.4568 56.2666 24.1684Z" fill="#003481"/>
<path d="M51.0318 25.2017H44.8326C44.262 25.2017 43.7994 25.6643 43.7994 26.2349C43.7994 26.8055 44.262 27.2681 44.8326 27.2681H51.0318C51.6024 27.2681 52.065 26.8055 52.065 26.2349C52.065 25.6643 51.6024 25.2017 51.0318 25.2017Z" fill="#0052C2"/>
<path d="M34.5005 27.2681C35.0712 27.2681 35.5337 26.8055 35.5337 26.2349C35.5337 25.6642 35.0712 25.2017 34.5005 25.2017C33.9299 25.2017 33.4673 25.6642 33.4673 26.2349C33.4673 26.8055 33.9299 27.2681 34.5005 27.2681Z" fill="#F03800"/>
<path d="M30.3677 27.2681C30.9384 27.2681 31.4009 26.8055 31.4009 26.2349C31.4009 25.6642 30.9384 25.2017 30.3677 25.2017C29.7971 25.2017 29.3345 25.6642 29.3345 26.2349C29.3345 26.8055 29.7971 27.2681 30.3677 27.2681Z" fill="#FDBF00"/>
<path d="M26.235 27.2681C26.8056 27.2681 27.2682 26.8055 27.2682 26.2349C27.2682 25.6642 26.8056 25.2017 26.235 25.2017C25.6644 25.2017 25.2018 25.6642 25.2018 26.2349C25.2018 26.8055 25.6644 27.2681 26.235 27.2681Z" fill="#37D742"/>
<path d="M21.0001 30.3677V53.0981C21.0001 54.8072 22.3905 56.1977 24.0997 56.1977H53.167C54.8761 56.1977 56.2666 54.8072 56.2666 53.0981V30.3677H21.0001Z" fill="#E0F4FF"/>
<path d="M56.2666 30.3677V53.0981C56.2666 54.807 54.876 56.1977 53.167 56.1977H38.6334V30.3677H56.2666Z" fill="#B8E0F5"/>
<path d="M42.1402 34.584C41.6158 34.3593 41.0083 34.6022 40.7836 35.1267L34.5844 49.5915C34.3595 50.1159 34.6026 50.7234 35.127 50.9481C35.6517 51.1729 36.259 50.9298 36.4837 50.4055L42.6829 35.9407C42.9077 35.4162 42.6647 34.8088 42.1402 34.584Z" fill="#FF641A"/>
<path d="M42.6828 35.9408L38.6334 45.3898V40.1425L40.7831 35.1267C41.0083 34.6025 41.6152 34.3593 42.14 34.5839C42.6642 34.8091 42.9074 35.416 42.6828 35.9408Z" fill="#F03800"/>
<path d="M33.0793 46.0921L28.9219 42.7661L33.0793 39.4401C33.525 39.0836 33.5972 38.4335 33.2407 37.9879C32.8842 37.5423 32.2339 37.4701 31.7885 37.8266L26.6225 41.9594C26.106 42.3724 26.1056 43.1595 26.6225 43.5729L31.7885 47.7058C32.2341 48.0623 32.8844 47.99 33.2407 47.5444C33.5972 47.0987 33.525 46.4486 33.0793 46.0921Z" fill="#FF641A"/>
<path d="M50.644 41.9593L45.478 37.8265C45.0324 37.4699 44.3822 37.5422 44.0258 37.9878C43.6694 38.4334 43.7416 39.0836 44.1872 39.44L48.3447 42.766L44.1872 46.092C43.7416 46.4485 43.6694 47.0987 44.0258 47.5442C44.3828 47.9903 45.0331 48.0617 45.478 47.7056L50.644 43.5728C51.1606 43.1597 51.1609 42.3727 50.644 41.9593Z" fill="#F03800"/>
</svg>
