<svg width="92" height="92" viewBox="0 0 92 92" fill="none" xmlns="http://www.w3.org/2000/svg">
<circle cx="46" cy="46" r="46" fill="#F2F3F9"/>
<path d="M56.0312 40V35.9688H35.9688V40H56.0312ZM56.0312 47.9688V44.0312H35.9688V47.9688H56.0312ZM50.0312 56.0312V52H35.9688V56.0312H50.0312ZM47.4062 28.5625C47.0312 28.1875 46.5625 28 46 28C45.4375 28 44.9688 28.1875 44.5938 28.5625C44.2188 28.9375 44.0312 29.4062 44.0312 29.9688C44.0312 30.5312 44.2188 31.0312 44.5938 31.4688C44.9688 31.8438 45.4375 32.0312 46 32.0312C46.5625 32.0312 47.0312 31.8438 47.4062 31.4688C47.7812 31.0312 47.9688 30.5312 47.9688 29.9688C47.9688 29.4062 47.7812 28.9375 47.4062 28.5625ZM59.9688 28C61.0312 28 61.9688 28.4062 62.7812 29.2188C63.5938 30.0312 64 30.9688 64 32.0312V59.9688C64 61.0312 63.5938 61.9688 62.7812 62.7812C61.9688 63.5938 61.0312 64 59.9688 64H32.0312C30.9688 64 30.0312 63.5938 29.2188 62.7812C28.4062 61.9688 28 61.0312 28 59.9688V32.0312C28 30.9688 28.4062 30.0312 29.2188 29.2188C30.0312 28.4062 30.9688 28 32.0312 28H40.375C40.8125 26.8125 41.5312 25.8438 42.5312 25.0938C43.5312 24.3438 44.6875 23.9688 46 23.9688C47.3125 23.9688 48.4688 24.3438 49.4688 25.0938C50.4688 25.8438 51.1875 26.8125 51.625 28H59.9688Z" fill="#393982"/>
</svg>
