<svg width="92" height="92" viewBox="0 0 92 92" fill="none" xmlns="http://www.w3.org/2000/svg">
<circle cx="46" cy="46" r="46" fill="#F2F3F9"/>
<path d="M38.9688 49L32.0312 58H59.9688L50.9688 46L44.0312 55L38.9688 49ZM64 59.9688C64 61.0312 63.5938 61.9688 62.7812 62.7812C61.9688 63.5938 61.0312 64 59.9688 64H32.0312C30.9688 64 30.0312 63.5938 29.2188 62.7812C28.4062 61.9688 28 61.0312 28 59.9688V32.0312C28 30.9688 28.4062 30.0312 29.2188 29.2188C30.0312 28.4062 30.9688 28 32.0312 28H59.9688C61.0312 28 61.9688 28.4062 62.7812 29.2188C63.5938 30.0312 64 30.9688 64 32.0312V59.9688Z" fill="#393982"/>
</svg>
