<svg width="92" height="92" viewBox="0 0 92 92" fill="none" xmlns="http://www.w3.org/2000/svg">
<circle cx="46" cy="46" r="46" fill="#F2F3F9"/>
<path d="M53.9688 43.9688C55.7188 43.9688 57.625 44.2188 59.6875 44.7188C61.75 45.2188 63.6562 46.0312 65.4062 47.1562C67.1562 48.2812 68.0312 49.5625 68.0312 51V55.9688H56.0312V51C56.0312 48.25 54.7188 45.9375 52.0938 44.0625C52.5312 44 53.1562 43.9688 53.9688 43.9688ZM32.3125 44.7188C34.375 44.2188 36.2812 43.9688 38.0312 43.9688C39.7812 43.9688 41.6875 44.2188 43.75 44.7188C45.8125 45.2188 47.6875 46.0312 49.375 47.1562C51.125 48.2812 52 49.5625 52 51V55.9688H23.9688V51C23.9688 49.5625 24.8438 48.2812 26.5938 47.1562C28.3438 46.0312 30.25 45.2188 32.3125 44.7188ZM42.1562 38.25C41.0312 39.4375 39.6562 40.0312 38.0312 40.0312C36.4062 40.0312 35 39.4375 33.8125 38.25C32.625 37.0625 32.0312 35.6562 32.0312 34.0312C32.0312 32.4062 32.625 31 33.8125 29.8125C35 28.625 36.4062 28.0312 38.0312 28.0312C39.6562 28.0312 41.0312 28.625 42.1562 29.8125C43.3438 31 43.9375 32.4062 43.9375 34.0312C43.9375 35.6562 43.3438 37.0625 42.1562 38.25ZM58.1875 38.25C57 39.4375 55.5938 40.0312 53.9688 40.0312C52.3438 40.0312 50.9375 39.4375 49.75 38.25C48.5625 37.0625 47.9688 35.6562 47.9688 34.0312C47.9688 32.4062 48.5625 31 49.75 29.8125C50.9375 28.625 52.3438 28.0312 53.9688 28.0312C55.5938 28.0312 57 28.625 58.1875 29.8125C59.375 31 59.9688 32.4062 59.9688 34.0312C59.9688 35.6562 59.375 37.0625 58.1875 38.25Z" fill="#393982"/>
</svg>
