<svg width="92" height="92" viewBox="0 0 92 92" fill="none" xmlns="http://www.w3.org/2000/svg">
<circle cx="46" cy="46" r="46" fill="#F2F3F9"/>
<path d="M50.0312 34V29.9688H41.9688V34H50.0312ZM62.0312 34C63.1562 34 64.0938 34.4062 64.8438 35.2188C65.5938 35.9688 65.9688 36.9062 65.9688 38.0312V59.9688C65.9688 61.0938 65.5938 62.0625 64.8438 62.875C64.0938 63.625 63.1562 64 62.0312 64H29.9688C28.8438 64 27.9062 63.625 27.1562 62.875C26.4062 62.0625 26.0312 61.0938 26.0312 59.9688V38.0312C26.0312 36.9062 26.4062 35.9688 27.1562 35.2188C27.9062 34.4062 28.8438 34 29.9688 34H38.0312V29.9688C38.0312 28.8438 38.4062 27.9062 39.1562 27.1562C39.9062 26.4062 40.8438 26.0312 41.9688 26.0312H50.0312C51.1562 26.0312 52.0938 26.4062 52.8438 27.1562C53.5938 27.9062 53.9688 28.8438 53.9688 29.9688V34H62.0312Z" fill="#393982"/>
</svg>
